<svg xmlns="http://www.w3.org/2000/svg" xmlns:xlink="http://www.w3.org/1999/xlink" preserveAspectRatio="xMidYMid" width="223" height="112" viewBox="0 0 223 112">
  <defs>
    <style>

      .cls-3 {
        fill: #826e03;
      }

      .cls-5 {
        fill: #453a00;
      }
    </style>
  </defs>
  <g id="nasscom">
    <path d="M40.769,5.699 C40.769,5.699 47.061,-2.443 56.458,0.730 C56.458,0.730 51.082,9.378 40.769,5.699 ZM17.571,60.128 C17.571,60.128 17.397,47.348 29.398,43.706 C29.398,43.706 30.902,56.330 17.571,60.128 ZM22.393,30.009 C22.393,30.009 27.436,19.642 38.589,21.131 C38.589,21.131 34.685,31.865 22.393,30.009 ZM46.326,10.394 C46.326,10.394 41.238,18.526 31.485,15.611 C30.255,16.960 29.066,18.343 27.972,19.799 C27.572,21.088 26.908,22.436 25.886,23.823 C25.886,23.823 25.743,23.654 25.521,23.348 C22.288,28.415 19.870,34.005 18.434,39.953 C20.583,36.690 24.636,32.642 31.595,32.608 C31.595,32.608 29.396,43.360 17.628,43.947 C17.171,46.763 16.926,49.645 16.926,52.584 C16.926,59.684 18.310,66.472 20.825,72.727 C20.730,68.041 22.015,61.089 29.356,56.625 C29.356,56.625 34.451,69.061 22.714,76.919 C24.956,81.374 27.792,85.505 31.126,89.219 C29.193,84.550 27.002,75.480 34.326,67.563 C34.326,67.563 43.983,79.630 33.390,91.600 C44.143,102.289 59.258,108.954 76.014,108.954 C76.014,108.954 75.735,111.997 75.735,111.997 C42.376,111.997 15.332,86.197 15.332,54.373 C15.332,53.220 15.370,52.075 15.440,50.938 C12.615,49.579 4.444,44.789 5.272,35.143 C5.272,35.143 13.944,37.497 16.032,45.744 C16.677,41.650 17.781,37.701 19.280,33.938 C18.784,35.188 18.076,36.478 17.105,37.797 C17.105,37.797 8.909,28.136 15.775,18.466 C15.775,18.466 22.741,25.175 19.287,33.919 C20.843,30.016 22.826,26.314 25.187,22.867 C23.627,20.532 20.329,14.250 24.796,7.958 C24.796,7.958 29.566,12.561 28.222,18.831 C29.161,17.689 30.153,16.591 31.176,15.520 C30.994,15.462 30.823,15.428 30.638,15.362 C30.638,15.362 32.489,12.988 35.664,11.304 C36.993,10.174 38.356,9.078 39.789,8.064 C38.505,9.016 37.277,10.031 36.082,11.080 C38.734,9.777 42.235,9.012 46.326,10.394 ZM31.382,10.668 C31.382,10.668 31.584,2.381 39.452,0.286 C39.452,0.286 40.118,8.503 31.382,10.668 ZM16.286,67.854 C16.286,67.854 2.267,64.189 1.884,51.158 C1.884,51.158 16.133,53.450 16.286,67.854 ZM20.536,80.252 C20.536,80.252 6.231,82.698 0.009,71.093 C0.009,71.093 13.906,67.314 20.536,80.252 ZM30.778,94.046 C30.778,94.046 14.336,96.857 7.188,83.519 C7.188,83.519 23.156,79.175 30.778,94.046 Z" id="path-1" class="cls-3" fill-rule="evenodd"/>
    <path d="M206.714,67.854 C206.867,53.450 221.116,51.158 221.116,51.158 C220.733,64.189 206.714,67.854 206.714,67.854 ZM205.429,60.128 C192.098,56.330 193.602,43.706 193.602,43.706 C205.603,47.348 205.429,60.128 205.429,60.128 ZM200.607,30.009 C188.315,31.865 184.411,21.131 184.411,21.131 C195.564,19.642 200.607,30.009 200.607,30.009 ZM207.560,50.938 C207.630,52.075 207.668,53.220 207.668,54.373 C207.668,86.197 180.624,111.997 147.265,111.997 C147.265,111.997 146.986,108.954 146.986,108.954 C163.742,108.954 178.857,102.289 189.610,91.600 C179.017,79.630 188.674,67.563 188.674,67.563 C195.998,75.480 193.807,84.550 191.874,89.219 C195.208,85.505 198.044,81.374 200.286,76.919 C188.549,69.061 193.644,56.625 193.644,56.625 C200.985,61.089 202.270,68.041 202.175,72.727 C204.690,66.472 206.074,59.684 206.074,52.584 C206.074,49.645 205.829,46.763 205.372,43.947 C193.604,43.360 191.405,32.608 191.405,32.608 C198.364,32.642 202.417,36.690 204.566,39.953 C203.130,34.005 200.712,28.415 197.479,23.348 C197.257,23.654 197.114,23.823 197.114,23.823 C196.092,22.436 195.428,21.088 195.028,19.799 C193.934,18.343 192.745,16.960 191.515,15.611 C181.762,18.526 176.674,10.394 176.674,10.394 C180.765,9.012 184.266,9.777 186.918,11.080 C185.723,10.031 184.495,9.016 183.211,8.064 C184.644,9.078 186.007,10.174 187.336,11.304 C190.511,12.988 192.362,15.362 192.362,15.362 C192.177,15.428 192.006,15.462 191.824,15.520 C192.847,16.591 193.839,17.689 194.778,18.831 C193.434,12.561 198.204,7.958 198.204,7.958 C202.671,14.250 199.373,20.532 197.813,22.867 C200.174,26.314 202.157,30.016 203.713,33.919 C200.259,25.175 207.225,18.466 207.225,18.466 C214.091,28.136 205.895,37.797 205.895,37.797 C204.924,36.478 204.216,35.188 203.720,33.938 C205.219,37.701 206.323,41.650 206.968,45.744 C209.056,37.497 217.728,35.143 217.728,35.143 C218.556,44.789 210.385,49.579 207.560,50.938 ZM183.548,0.286 C191.416,2.381 191.618,10.668 191.618,10.668 C182.882,8.503 183.548,0.286 183.548,0.286 ZM166.542,0.730 C175.939,-2.443 182.231,5.699 182.231,5.699 C171.918,9.378 166.542,0.730 166.542,0.730 ZM215.812,83.519 C208.664,96.857 192.222,94.046 192.222,94.046 C199.844,79.175 215.812,83.519 215.812,83.519 ZM202.464,80.252 C209.094,67.314 222.991,71.093 222.991,71.093 C216.769,82.698 202.464,80.252 202.464,80.252 Z" id="path-2" class="cls-3" fill-rule="evenodd"/>
    <path d="M166.583,59.000 C166.583,59.000 166.583,46.128 166.583,46.128 C166.583,46.128 161.484,59.000 161.484,59.000 C161.484,59.000 160.235,59.000 160.235,59.000 C160.235,59.000 155.111,46.128 155.111,46.128 C155.111,46.128 155.111,59.000 155.111,59.000 C155.111,59.000 152.187,59.000 152.187,59.000 C152.187,59.000 152.187,42.329 152.187,42.329 C152.187,42.329 156.311,42.329 156.311,42.329 C156.311,42.329 160.860,53.776 160.860,53.776 C160.860,53.776 165.383,42.329 165.383,42.329 C165.383,42.329 169.507,42.329 169.507,42.329 C169.507,42.329 169.507,59.000 169.507,59.000 C169.507,59.000 166.583,59.000 166.583,59.000 ZM140.860,59.300 C135.861,59.300 132.337,55.651 132.337,50.677 C132.337,45.703 135.861,42.054 140.860,42.054 C145.834,42.054 149.383,45.703 149.383,50.677 C149.383,55.651 145.834,59.300 140.860,59.300 ZM140.860,44.654 C137.486,44.654 135.336,47.228 135.336,50.677 C135.336,54.101 137.486,56.701 140.860,56.701 C144.209,56.701 146.383,54.101 146.383,50.677 C146.383,47.228 144.209,44.654 140.860,44.654 ZM136.171,77.222 C136.171,77.222 136.171,77.527 136.171,77.527 C136.171,77.527 129.929,77.527 129.929,77.527 C130.025,78.983 131.033,80.200 132.698,80.200 C133.594,80.200 134.475,79.848 135.099,79.207 C135.099,79.207 135.675,79.992 135.675,79.992 C134.891,80.760 133.850,81.192 132.602,81.192 C130.297,81.192 128.648,79.543 128.648,77.126 C128.648,74.886 130.249,73.077 132.458,73.077 C134.795,73.077 136.171,74.902 136.171,77.222 ZM129.913,76.630 C129.913,76.630 134.987,76.630 134.987,76.630 C134.971,75.494 134.203,74.069 132.442,74.069 C130.793,74.069 129.977,75.462 129.913,76.630 ZM124.035,56.701 C125.810,56.701 127.434,55.651 128.234,54.276 C128.234,54.276 130.733,55.526 130.733,55.526 C129.459,57.525 127.384,59.300 124.035,59.300 C119.111,59.300 115.287,55.801 115.287,50.677 C115.287,45.528 119.111,42.054 124.035,42.054 C127.384,42.054 129.484,43.779 130.708,45.778 C130.708,45.778 128.234,47.078 128.234,47.078 C127.434,45.678 125.810,44.654 124.035,44.654 C120.736,44.654 118.286,47.153 118.286,50.677 C118.286,54.151 120.736,56.701 124.035,56.701 ZM117.501,75.414 C117.501,75.414 117.501,81.000 117.501,81.000 C117.501,81.000 116.300,81.000 116.300,81.000 C116.300,81.000 116.300,75.750 116.300,75.750 C116.300,74.773 115.884,74.149 114.876,74.149 C114.075,74.149 113.227,74.709 112.827,75.334 C112.827,75.334 112.827,81.000 112.827,81.000 C112.827,81.000 111.626,81.000 111.626,81.000 C111.626,81.000 111.626,75.750 111.626,75.750 C111.626,74.773 111.226,74.149 110.202,74.149 C109.418,74.149 108.585,74.725 108.169,75.350 C108.169,75.350 108.169,81.000 108.169,81.000 C108.169,81.000 106.969,81.000 106.969,81.000 C106.969,81.000 106.969,73.269 106.969,73.269 C106.969,73.269 108.169,73.269 108.169,73.269 C108.169,73.269 108.169,74.389 108.169,74.389 C108.505,73.893 109.530,73.077 110.682,73.077 C111.851,73.077 112.523,73.717 112.747,74.517 C113.179,73.813 114.219,73.077 115.340,73.077 C116.749,73.077 117.501,73.861 117.501,75.414 ZM113.334,54.126 C113.334,56.901 111.360,59.300 106.886,59.300 C103.811,59.300 101.587,58.200 100.087,56.651 C100.087,56.651 101.737,54.376 101.737,54.376 C102.862,55.601 104.686,56.701 107.011,56.701 C109.410,56.701 110.335,55.526 110.335,54.401 C110.335,50.902 100.637,53.076 100.637,46.953 C100.637,44.179 103.037,42.054 106.711,42.054 C109.285,42.054 111.410,42.904 112.934,44.404 C112.934,44.404 111.285,46.578 111.285,46.578 C109.960,45.253 108.185,44.654 106.436,44.654 C104.736,44.654 103.636,45.503 103.636,46.728 C103.636,49.852 113.334,47.928 113.334,54.126 ZM98.484,54.126 C98.484,56.901 96.510,59.300 92.036,59.300 C88.962,59.300 86.737,58.200 85.237,56.651 C85.237,56.651 86.887,54.376 86.887,54.376 C88.012,55.601 89.836,56.701 92.161,56.701 C94.560,56.701 95.485,55.526 95.485,54.401 C95.485,50.902 85.787,53.076 85.787,46.953 C85.787,44.179 88.187,42.054 91.861,42.054 C94.435,42.054 96.560,42.904 98.084,44.404 C98.084,44.404 96.435,46.578 96.435,46.578 C95.110,45.253 93.335,44.654 91.586,44.654 C89.886,44.654 88.787,45.503 88.787,46.728 C88.787,49.852 98.484,47.928 98.484,54.126 ZM90.299,78.551 C90.299,78.551 93.612,70.324 93.612,70.324 C93.612,70.324 95.517,70.324 95.517,70.324 C95.517,70.324 95.517,81.000 95.517,81.000 C95.517,81.000 94.189,81.000 94.189,81.000 C94.189,81.000 94.189,72.020 94.189,72.020 C94.189,72.020 90.571,81.000 90.571,81.000 C90.571,81.000 90.027,81.000 90.027,81.000 C90.027,81.000 86.393,72.020 86.393,72.020 C86.393,72.020 86.393,81.000 86.393,81.000 C86.393,81.000 85.065,81.000 85.065,81.000 C85.065,81.000 85.065,70.324 85.065,70.324 C85.065,70.324 86.970,70.324 86.970,70.324 C86.970,70.324 90.299,78.551 90.299,78.551 ZM80.210,55.776 C80.210,55.776 72.562,55.776 72.562,55.776 C72.562,55.776 71.337,59.000 71.337,59.000 C71.337,59.000 68.013,59.000 68.013,59.000 C68.013,59.000 74.561,42.329 74.561,42.329 C74.561,42.329 78.210,42.329 78.210,42.329 C78.210,42.329 84.759,59.000 84.759,59.000 C84.759,59.000 81.434,59.000 81.434,59.000 C81.434,59.000 80.210,55.776 80.210,55.776 ZM76.386,45.253 C76.386,45.253 73.386,53.201 73.386,53.201 C73.386,53.201 79.385,53.201 79.385,53.201 C79.385,53.201 76.386,45.253 76.386,45.253 ZM54.662,47.078 C54.662,47.078 54.662,59.000 54.662,59.000 C54.662,59.000 51.738,59.000 51.738,59.000 C51.738,59.000 51.738,42.329 51.738,42.329 C51.738,42.329 54.737,42.329 54.737,42.329 C54.737,42.329 63.260,53.876 63.260,53.876 C63.260,53.876 63.260,42.329 63.260,42.329 C63.260,42.329 66.184,42.329 66.184,42.329 C66.184,42.329 66.184,59.000 66.184,59.000 C66.184,59.000 63.360,59.000 63.360,59.000 C63.360,59.000 54.662,47.078 54.662,47.078 ZM101.322,73.077 C103.659,73.077 105.036,74.902 105.036,77.222 C105.036,77.222 105.036,77.527 105.036,77.527 C105.036,77.527 98.793,77.527 98.793,77.527 C98.889,78.983 99.898,80.200 101.562,80.200 C102.459,80.200 103.339,79.848 103.963,79.207 C103.963,79.207 104.539,79.992 104.539,79.992 C103.755,80.760 102.715,81.192 101.466,81.192 C99.161,81.192 97.513,79.543 97.513,77.126 C97.513,74.886 99.113,73.077 101.322,73.077 ZM103.851,76.630 C103.835,75.494 103.067,74.069 101.306,74.069 C99.657,74.069 98.841,75.462 98.777,76.630 C98.777,76.630 103.851,76.630 103.851,76.630 ZM121.097,74.437 C121.721,73.589 122.666,73.077 123.706,73.077 C125.739,73.077 127.147,74.661 127.147,77.142 C127.147,79.655 125.723,81.192 123.706,81.192 C122.618,81.192 121.673,80.632 121.097,79.848 C121.097,79.848 121.097,81.000 121.097,81.000 C121.097,81.000 119.897,81.000 119.897,81.000 C119.897,81.000 119.897,70.324 119.897,70.324 C119.897,70.324 121.097,70.324 121.097,70.324 C121.097,70.324 121.097,74.437 121.097,74.437 ZM121.097,78.903 C121.513,79.575 122.458,80.120 123.418,80.120 C124.971,80.120 125.899,78.855 125.899,77.142 C125.899,75.430 124.971,74.149 123.418,74.149 C122.458,74.149 121.513,74.725 121.097,75.398 C121.097,75.398 121.097,78.903 121.097,78.903 ZM139.305,74.501 C139.929,73.701 140.825,73.093 141.882,73.093 C141.882,73.093 141.882,74.325 141.882,74.325 C141.738,74.309 141.594,74.293 141.418,74.293 C140.665,74.293 139.657,74.902 139.305,75.526 C139.305,75.526 139.305,81.000 139.305,81.000 C139.305,81.000 138.104,81.000 138.104,81.000 C138.104,81.000 138.104,73.269 138.104,73.269 C138.104,73.269 139.305,73.269 139.305,73.269 C139.305,73.269 139.305,74.501 139.305,74.501 Z" id="path-3" class="cls-5" fill-rule="evenodd"/>
  </g>
</svg>
