<svg xmlns="http://www.w3.org/2000/svg" xmlns:xlink="http://www.w3.org/1999/xlink" preserveAspectRatio="xMidYMid" width="244" height="112" viewBox="0 0 244 112">
  <defs>
    <style>

      .cls-3 {
        fill: #453a00;
      }

      .cls-4 {
        fill: #826e03;
      }
    </style>
  </defs>
  <g id="silicon">
    <path d="M186.185,75.000 C186.185,75.000 186.185,73.675 186.185,73.675 C185.285,74.725 183.860,75.300 182.261,75.300 C180.311,75.300 178.087,73.950 178.087,71.301 C178.087,68.502 180.286,67.352 182.261,67.352 C183.910,67.352 185.285,67.877 186.185,68.901 C186.185,68.901 186.185,67.102 186.185,67.102 C186.185,65.702 185.010,64.852 183.360,64.852 C182.011,64.852 180.811,65.352 179.786,66.402 C179.786,66.402 178.686,64.578 178.686,64.578 C180.086,63.228 181.836,62.628 183.760,62.628 C186.460,62.628 188.809,63.753 188.809,66.977 C188.809,66.977 188.809,75.000 188.809,75.000 C188.809,75.000 186.185,75.000 186.185,75.000 ZM186.185,70.401 C185.560,69.576 184.435,69.151 183.310,69.151 C181.836,69.151 180.711,70.026 180.711,71.326 C180.711,72.651 181.836,73.500 183.310,73.500 C184.435,73.500 185.560,73.075 186.185,72.251 C186.185,72.251 186.185,70.401 186.185,70.401 ZM174.086,61.453 C173.186,61.453 172.462,60.728 172.462,59.829 C172.462,58.929 173.186,58.204 174.086,58.204 C174.986,58.204 175.711,58.929 175.711,59.829 C175.711,60.728 174.986,61.453 174.086,61.453 ZM167.737,51.137 C167.497,51.137 167.016,51.089 166.792,51.025 C166.792,51.025 167.032,49.521 167.032,49.521 C167.208,49.601 167.481,49.649 167.673,49.649 C168.217,49.649 168.569,49.489 168.793,48.976 C168.793,48.976 169.177,48.096 169.177,48.096 C169.177,48.096 165.992,40.269 165.992,40.269 C165.992,40.269 167.801,40.269 167.801,40.269 C167.801,40.269 170.058,46.063 170.058,46.063 C170.058,46.063 172.314,40.269 172.314,40.269 C172.314,40.269 174.107,40.269 174.107,40.269 C174.107,40.269 170.378,49.393 170.378,49.393 C169.849,50.705 168.937,51.121 167.737,51.137 ZM161.978,48.192 C160.986,48.192 160.089,47.712 159.497,46.944 C159.497,46.944 159.497,48.000 159.497,48.000 C159.497,48.000 157.816,48.000 157.816,48.000 C157.816,48.000 157.816,37.324 157.816,37.324 C157.816,37.324 159.497,37.324 159.497,37.324 C159.497,37.324 159.497,41.341 159.497,41.341 C160.121,40.509 161.018,40.077 161.978,40.077 C163.979,40.077 165.420,41.629 165.420,44.126 C165.420,46.687 163.963,48.192 161.978,48.192 ZM161.498,41.565 C160.698,41.565 159.881,42.030 159.497,42.606 C159.497,42.606 159.497,45.679 159.497,45.679 C159.881,46.255 160.698,46.703 161.498,46.703 C162.826,46.703 163.675,45.631 163.675,44.126 C163.675,42.638 162.826,41.565 161.498,41.565 ZM162.861,62.628 C164.385,62.628 165.785,63.303 166.735,64.603 C166.735,64.603 166.735,58.329 166.735,58.329 C166.735,58.329 169.359,58.329 169.359,58.329 C169.359,58.329 169.359,75.000 169.359,75.000 C169.359,75.000 166.735,75.000 166.735,75.000 C166.735,75.000 166.735,73.350 166.735,73.350 C165.810,74.550 164.435,75.300 162.861,75.300 C159.786,75.300 157.512,72.951 157.512,68.951 C157.512,65.052 159.761,62.628 162.861,62.628 ZM163.635,72.975 C164.860,72.975 166.160,72.251 166.735,71.351 C166.735,71.351 166.735,66.577 166.735,66.577 C166.160,65.677 164.860,64.952 163.635,64.952 C161.536,64.952 160.211,66.627 160.211,68.951 C160.211,71.301 161.536,72.975 163.635,72.975 ZM152.210,67.452 C152.210,65.552 151.235,64.952 149.760,64.952 C148.436,64.952 147.286,65.752 146.661,66.552 C146.661,66.552 146.661,75.000 146.661,75.000 C146.661,75.000 144.037,75.000 144.037,75.000 C144.037,75.000 144.037,62.928 144.037,62.928 C144.037,62.928 146.661,62.928 146.661,62.928 C146.661,62.928 146.661,64.553 146.661,64.553 C147.461,63.603 149.036,62.628 150.935,62.628 C153.534,62.628 154.834,64.028 154.834,66.502 C154.834,66.502 154.834,75.000 154.834,75.000 C154.834,75.000 152.210,75.000 152.210,75.000 C152.210,75.000 152.210,67.452 152.210,67.452 ZM149.835,46.944 C149.243,47.712 148.362,48.192 147.354,48.192 C145.385,48.192 143.928,46.687 143.928,44.126 C143.928,41.629 145.369,40.077 147.354,40.077 C148.330,40.077 149.227,40.509 149.835,41.341 C149.835,41.341 149.835,37.324 149.835,37.324 C149.835,37.324 151.516,37.324 151.516,37.324 C151.516,37.324 151.516,48.000 151.516,48.000 C151.516,48.000 149.835,48.000 149.835,48.000 C149.835,48.000 149.835,46.944 149.835,46.944 ZM149.835,42.606 C149.467,42.030 148.634,41.565 147.850,41.565 C146.505,41.565 145.657,42.638 145.657,44.126 C145.657,45.631 146.505,46.703 147.850,46.703 C148.634,46.703 149.467,46.239 149.835,45.663 C149.835,45.663 149.835,42.606 149.835,42.606 ZM139.226,46.816 C139.995,46.816 140.875,46.511 141.435,45.951 C141.435,45.951 142.203,47.056 142.203,47.056 C141.419,47.792 140.283,48.192 139.066,48.192 C136.729,48.192 135.017,46.575 135.017,44.126 C135.017,41.886 136.649,40.077 138.938,40.077 C141.259,40.077 142.732,41.838 142.732,44.270 C142.732,44.270 142.732,44.687 142.732,44.687 C142.732,44.687 136.777,44.687 136.777,44.687 C136.905,45.839 137.770,46.816 139.226,46.816 ZM141.115,43.486 C141.067,42.574 140.443,41.453 138.922,41.453 C137.498,41.453 136.825,42.558 136.761,43.486 C136.761,43.486 141.115,43.486 141.115,43.486 ZM127.529,46.719 C127.529,46.719 131.338,41.725 131.338,41.725 C131.338,41.725 127.529,41.725 127.529,41.725 C127.529,41.725 127.529,40.269 127.529,40.269 C127.529,40.269 133.595,40.269 133.595,40.269 C133.595,40.269 133.595,41.485 133.595,41.485 C133.595,41.485 129.722,46.527 129.722,46.527 C129.722,46.527 133.659,46.527 133.659,46.527 C133.659,46.527 133.659,48.000 133.659,48.000 C133.659,48.000 127.529,48.000 127.529,48.000 C127.529,48.000 127.529,46.719 127.529,46.719 ZM124.857,39.324 C124.281,39.324 123.817,38.860 123.817,38.284 C123.817,37.708 124.281,37.244 124.857,37.244 C125.433,37.244 125.898,37.708 125.898,38.284 C125.898,38.860 125.433,39.324 124.857,39.324 ZM124.009,40.269 C124.009,40.269 125.690,40.269 125.690,40.269 C125.690,40.269 125.690,48.000 125.690,48.000 C125.690,48.000 124.009,48.000 124.009,48.000 C124.009,48.000 124.009,40.269 124.009,40.269 ZM127.710,66.502 C127.710,66.502 127.710,75.000 127.710,75.000 C127.710,75.000 125.085,75.000 125.085,75.000 C125.085,75.000 125.085,67.452 125.085,67.452 C125.085,65.552 124.111,64.952 122.636,64.952 C121.311,64.952 120.162,65.752 119.537,66.552 C119.537,66.552 119.537,75.000 119.537,75.000 C119.537,75.000 116.912,75.000 116.912,75.000 C116.912,75.000 116.912,62.928 116.912,62.928 C116.912,62.928 119.537,62.928 119.537,62.928 C119.537,62.928 119.537,64.553 119.537,64.553 C120.337,63.603 121.911,62.628 123.811,62.628 C126.410,62.628 127.710,64.028 127.710,66.502 ZM120.155,43.166 C120.155,41.950 119.531,41.565 118.586,41.565 C117.738,41.565 117.002,42.078 116.602,42.590 C116.602,42.590 116.602,48.000 116.602,48.000 C116.602,48.000 114.921,48.000 114.921,48.000 C114.921,48.000 114.921,40.269 114.921,40.269 C114.921,40.269 116.602,40.269 116.602,40.269 C116.602,40.269 116.602,41.309 116.602,41.309 C117.114,40.701 118.122,40.077 119.339,40.077 C121.003,40.077 121.836,40.973 121.836,42.558 C121.836,42.558 121.836,48.000 121.836,48.000 C121.836,48.000 120.155,48.000 120.155,48.000 C120.155,48.000 120.155,43.166 120.155,43.166 ZM108.036,75.300 C104.187,75.300 101.838,72.401 101.838,68.951 C101.838,65.477 104.187,62.628 108.036,62.628 C111.885,62.628 114.235,65.477 114.235,68.951 C114.235,72.401 111.885,75.300 108.036,75.300 ZM108.036,64.952 C105.812,64.952 104.562,66.827 104.562,68.951 C104.562,71.101 105.812,72.975 108.036,72.975 C110.286,72.975 111.510,71.101 111.510,68.951 C111.510,66.827 110.286,64.952 108.036,64.952 ZM108.778,51.137 C107.466,51.137 106.489,50.849 105.529,49.985 C105.529,49.985 106.313,48.768 106.313,48.768 C106.954,49.489 107.754,49.761 108.778,49.761 C109.883,49.761 111.067,49.249 111.067,47.600 C111.067,47.600 111.067,46.719 111.067,46.719 C110.475,47.504 109.595,48.016 108.586,48.016 C106.617,48.016 105.161,46.591 105.161,44.046 C105.161,41.533 106.585,40.077 108.586,40.077 C109.563,40.077 110.443,40.509 111.067,41.341 C111.067,41.341 111.067,40.269 111.067,40.269 C111.067,40.269 112.748,40.269 112.748,40.269 C112.748,40.269 112.748,47.600 112.748,47.600 C112.748,50.385 110.667,51.137 108.778,51.137 ZM111.067,42.590 C110.683,42.030 109.867,41.565 109.082,41.565 C107.738,41.565 106.890,42.558 106.890,44.046 C106.890,45.535 107.738,46.511 109.082,46.511 C109.867,46.511 110.683,46.047 111.067,45.487 C111.067,45.487 111.067,42.590 111.067,42.590 ZM99.947,48.192 C97.482,48.192 95.977,46.335 95.977,44.126 C95.977,41.902 97.482,40.077 99.947,40.077 C102.412,40.077 103.916,41.902 103.916,44.126 C103.916,46.335 102.412,48.192 99.947,48.192 ZM99.947,41.565 C98.522,41.565 97.722,42.766 97.722,44.126 C97.722,45.503 98.522,46.703 99.947,46.703 C101.387,46.703 102.172,45.503 102.172,44.126 C102.172,42.766 101.387,41.565 99.947,41.565 ZM100.236,64.777 C100.236,64.777 98.511,66.352 98.511,66.352 C97.836,65.402 96.911,64.952 95.737,64.952 C93.562,64.952 92.088,66.602 92.088,68.951 C92.088,71.301 93.562,72.975 95.737,72.975 C96.911,72.975 97.836,72.476 98.511,71.526 C98.511,71.526 100.236,73.150 100.236,73.150 C99.386,74.275 97.986,75.300 95.612,75.300 C91.963,75.300 89.388,72.601 89.388,68.951 C89.388,65.302 91.963,62.628 95.612,62.628 C97.986,62.628 99.386,63.628 100.236,64.777 ZM92.075,46.703 C92.827,46.703 93.419,46.383 93.852,45.775 C93.852,45.775 94.956,46.816 94.956,46.816 C94.412,47.536 93.515,48.192 91.995,48.192 C89.658,48.192 88.009,46.463 88.009,44.126 C88.009,41.789 89.658,40.077 91.995,40.077 C93.515,40.077 94.412,40.717 94.956,41.453 C94.956,41.453 93.852,42.462 93.852,42.462 C93.419,41.854 92.827,41.565 92.075,41.565 C90.682,41.565 89.738,42.622 89.738,44.126 C89.738,45.631 90.682,46.703 92.075,46.703 ZM85.413,61.453 C84.513,61.453 83.788,60.728 83.788,59.829 C83.788,58.929 84.513,58.204 85.413,58.204 C86.313,58.204 87.037,58.929 87.037,59.829 C87.037,60.728 86.313,61.453 85.413,61.453 ZM83.307,46.816 C84.075,46.816 84.956,46.511 85.516,45.951 C85.516,45.951 86.284,47.056 86.284,47.056 C85.500,47.792 84.364,48.192 83.147,48.192 C80.810,48.192 79.097,46.575 79.097,44.126 C79.097,41.886 80.730,40.077 83.019,40.077 C85.340,40.077 86.813,41.838 86.813,44.270 C86.813,44.270 86.813,44.687 86.813,44.687 C86.813,44.687 80.858,44.687 80.858,44.687 C80.986,45.839 81.851,46.816 83.307,46.816 ZM85.196,43.486 C85.148,42.574 84.524,41.453 83.003,41.453 C81.578,41.453 80.906,42.558 80.842,43.486 C80.842,43.486 85.196,43.486 85.196,43.486 ZM76.124,48.000 C76.124,48.000 73.771,44.014 73.771,44.014 C73.771,44.014 71.898,44.014 71.898,44.014 C71.898,44.014 71.898,48.000 71.898,48.000 C71.898,48.000 70.026,48.000 70.026,48.000 C70.026,48.000 70.026,37.324 70.026,37.324 C70.026,37.324 74.716,37.324 74.716,37.324 C76.828,37.324 78.221,38.684 78.221,40.669 C78.221,42.558 76.972,43.598 75.676,43.806 C75.676,43.806 78.301,48.000 78.301,48.000 C78.301,48.000 76.124,48.000 76.124,48.000 ZM76.300,40.653 C76.300,39.629 75.532,38.972 74.475,38.972 C74.475,38.972 71.898,38.972 71.898,38.972 C71.898,38.972 71.898,42.366 71.898,42.366 C71.898,42.366 74.475,42.366 74.475,42.366 C75.532,42.366 76.300,41.693 76.300,40.653 ZM69.435,70.126 C69.435,72.901 67.461,75.300 62.987,75.300 C59.913,75.300 57.688,74.200 56.189,72.651 C56.189,72.651 57.838,70.376 57.838,70.376 C58.963,71.601 60.787,72.701 63.112,72.701 C65.511,72.701 66.436,71.526 66.436,70.401 C66.436,66.902 56.738,69.076 56.738,62.953 C56.738,60.179 59.138,58.054 62.812,58.054 C65.386,58.054 67.511,58.904 69.035,60.404 C69.035,60.404 67.386,62.578 67.386,62.578 C66.061,61.253 64.287,60.654 62.537,60.654 C60.837,60.654 59.738,61.503 59.738,62.728 C59.738,65.852 69.435,63.928 69.435,70.126 ZM73.363,58.204 C74.263,58.204 74.987,58.929 74.987,59.829 C74.987,60.728 74.263,61.453 73.363,61.453 C72.463,61.453 71.738,60.728 71.738,59.829 C71.738,58.929 72.463,58.204 73.363,58.204 ZM74.663,75.000 C74.663,75.000 72.038,75.000 72.038,75.000 C72.038,75.000 72.038,62.928 72.038,62.928 C72.038,62.928 74.663,62.928 74.663,62.928 C74.663,62.928 74.663,75.000 74.663,75.000 ZM80.688,75.000 C80.688,75.000 78.063,75.000 78.063,75.000 C78.063,75.000 78.063,58.329 78.063,58.329 C78.063,58.329 80.688,58.329 80.688,58.329 C80.688,58.329 80.688,75.000 80.688,75.000 ZM86.712,75.000 C86.712,75.000 84.088,75.000 84.088,75.000 C84.088,75.000 84.088,62.928 84.088,62.928 C84.088,62.928 86.712,62.928 86.712,62.928 C86.712,62.928 86.712,75.000 86.712,75.000 ZM140.561,75.000 C140.561,75.000 137.637,75.000 137.637,75.000 C137.637,75.000 137.637,58.329 137.637,58.329 C137.637,58.329 140.561,58.329 140.561,58.329 C140.561,58.329 140.561,75.000 140.561,75.000 ZM175.386,75.000 C175.386,75.000 172.761,75.000 172.761,75.000 C172.761,75.000 172.761,62.928 172.761,62.928 C172.761,62.928 175.386,62.928 175.386,62.928 C175.386,62.928 175.386,75.000 175.386,75.000 Z" id="path-1" class="cls-3" fill-rule="evenodd"/>
    <path d="M40.769,5.699 C40.769,5.699 47.061,-2.443 56.458,0.730 C56.458,0.730 51.082,9.378 40.769,5.699 ZM17.571,60.128 C17.571,60.128 17.397,47.348 29.398,43.706 C29.398,43.706 30.902,56.330 17.571,60.128 ZM22.393,30.009 C22.393,30.009 27.436,19.642 38.589,21.131 C38.589,21.131 34.685,31.865 22.393,30.009 ZM46.326,10.394 C46.326,10.394 41.238,18.526 31.485,15.611 C30.255,16.960 29.066,18.343 27.972,19.799 C27.572,21.088 26.908,22.436 25.886,23.823 C25.886,23.823 25.743,23.654 25.521,23.348 C22.288,28.415 19.870,34.005 18.434,39.953 C20.583,36.690 24.636,32.642 31.595,32.608 C31.595,32.608 29.396,43.360 17.628,43.947 C17.171,46.763 16.926,49.645 16.926,52.584 C16.926,59.684 18.310,66.472 20.825,72.727 C20.730,68.041 22.015,61.089 29.356,56.625 C29.356,56.625 34.451,69.061 22.714,76.919 C24.956,81.374 27.792,85.505 31.126,89.219 C29.193,84.550 27.002,75.480 34.326,67.563 C34.326,67.563 43.983,79.630 33.390,91.600 C44.143,102.289 59.258,108.954 76.014,108.954 C76.014,108.954 75.735,111.997 75.735,111.997 C42.376,111.997 15.332,86.197 15.332,54.373 C15.332,53.220 15.370,52.075 15.440,50.938 C12.615,49.579 4.444,44.789 5.272,35.143 C5.272,35.143 13.944,37.497 16.032,45.744 C16.677,41.650 17.781,37.701 19.280,33.938 C18.784,35.188 18.076,36.478 17.105,37.797 C17.105,37.797 8.909,28.136 15.775,18.466 C15.775,18.466 22.741,25.175 19.287,33.919 C20.843,30.016 22.826,26.314 25.187,22.867 C23.627,20.532 20.329,14.250 24.796,7.958 C24.796,7.958 29.566,12.561 28.222,18.831 C29.161,17.689 30.153,16.591 31.176,15.520 C30.994,15.462 30.823,15.428 30.638,15.362 C30.638,15.362 32.489,12.988 35.664,11.304 C36.993,10.174 38.356,9.078 39.789,8.064 C38.505,9.016 37.277,10.031 36.082,11.080 C38.734,9.777 42.235,9.012 46.326,10.394 ZM31.382,10.668 C31.382,10.668 31.584,2.381 39.452,0.286 C39.452,0.286 40.118,8.503 31.382,10.668 ZM16.286,67.854 C16.286,67.854 2.267,64.189 1.884,51.158 C1.884,51.158 16.133,53.450 16.286,67.854 ZM20.536,80.252 C20.536,80.252 6.231,82.698 0.009,71.093 C0.009,71.093 13.906,67.314 20.536,80.252 ZM30.778,94.046 C30.778,94.046 14.336,96.857 7.188,83.519 C7.188,83.519 23.156,79.175 30.778,94.046 Z" id="path-2" class="cls-4" fill-rule="evenodd"/>
    <path d="M227.714,67.854 C227.867,53.450 242.116,51.158 242.116,51.158 C241.733,64.189 227.714,67.854 227.714,67.854 ZM226.429,60.128 C213.098,56.330 214.602,43.706 214.602,43.706 C226.603,47.348 226.429,60.128 226.429,60.128 ZM221.607,30.009 C209.315,31.865 205.411,21.131 205.411,21.131 C216.564,19.642 221.607,30.009 221.607,30.009 ZM228.560,50.938 C228.630,52.075 228.668,53.220 228.668,54.373 C228.668,86.197 201.624,111.997 168.265,111.997 C168.265,111.997 167.986,108.954 167.986,108.954 C184.742,108.954 199.857,102.289 210.610,91.600 C200.017,79.630 209.674,67.563 209.674,67.563 C216.998,75.480 214.807,84.550 212.874,89.219 C216.208,85.505 219.044,81.374 221.286,76.919 C209.549,69.061 214.644,56.625 214.644,56.625 C221.985,61.089 223.270,68.041 223.175,72.727 C225.690,66.472 227.074,59.684 227.074,52.584 C227.074,49.645 226.829,46.763 226.372,43.947 C214.604,43.360 212.405,32.608 212.405,32.608 C219.364,32.642 223.417,36.690 225.566,39.953 C224.130,34.005 221.712,28.415 218.479,23.348 C218.257,23.654 218.114,23.823 218.114,23.823 C217.092,22.436 216.428,21.088 216.028,19.799 C214.934,18.343 213.745,16.960 212.515,15.611 C202.762,18.526 197.674,10.394 197.674,10.394 C201.765,9.012 205.266,9.777 207.918,11.080 C206.723,10.031 205.495,9.016 204.211,8.064 C205.644,9.078 207.007,10.174 208.336,11.304 C211.511,12.988 213.362,15.362 213.362,15.362 C213.177,15.428 213.006,15.462 212.824,15.520 C213.847,16.591 214.839,17.689 215.778,18.831 C214.434,12.561 219.204,7.958 219.204,7.958 C223.671,14.250 220.373,20.532 218.813,22.867 C221.174,26.314 223.157,30.016 224.713,33.919 C221.259,25.175 228.225,18.466 228.225,18.466 C235.091,28.136 226.895,37.797 226.895,37.797 C225.924,36.478 225.216,35.188 224.720,33.938 C226.219,37.701 227.323,41.650 227.968,45.744 C230.056,37.497 238.728,35.143 238.728,35.143 C239.556,44.789 231.385,49.579 228.560,50.938 ZM204.548,0.286 C212.416,2.381 212.618,10.668 212.618,10.668 C203.882,8.503 204.548,0.286 204.548,0.286 ZM187.542,0.730 C196.939,-2.443 203.231,5.699 203.231,5.699 C192.918,9.378 187.542,0.730 187.542,0.730 ZM236.812,83.519 C229.664,96.857 213.222,94.046 213.222,94.046 C220.844,79.175 236.812,83.519 236.812,83.519 ZM223.464,80.252 C230.094,67.314 243.991,71.093 243.991,71.093 C237.769,82.698 223.464,80.252 223.464,80.252 Z" id="path-3" class="cls-4" fill-rule="evenodd"/>
  </g>
</svg>
